{"title":"Master and Commander: The Far Side of the World (2003)","uid":12351165,"size":1382071103,"categoryP":"video","categoryS":"movies","magnet":"?xt=urn:btih:7d23b675c6375bac7d276ea36d019907ae025d87&amp;dn=Master+and+Commander%3A+The+Far+Side+of+the+World+%282003%29&amp;tr=udp%3A%2F%2Ftracker.openbittorrent.com%3A80&amp;tr=udp%3A%2F%2Fopen.demonii.com%3A1337&amp;tr=udp%3A%2F%2Ftracker.coppersurfer.tk%3A6969&amp;tr=udp%3A%2F%2Fexodus.desync.com%3A6969","seeders":0,"leechers":0,"uploader":"dascuba","files":1,"time":1441427908,"description":"Master and Commander: The Far Side of the World (2003)\nPG-13  |  138 min  |  Action, Adventure, Drama  |  14 November 2003 (USA)\n7.4 Your rating:   -/10   Ratings: 7.4/10 from 158,860 users   Metascore: 81/100 \nReviews: 685 user | 236 critic | 42 from Metacritic.com\nDuring the Napoleonic Wars, a brash British captain pushes his ship and crew to their limits in pursuit of a formidable French war vessel around South America.\n\nDirector: Peter Weir\nWriters: Patrick O'Brian (novels), Peter Weir (screenplay), 1 more credit Â»\nStars: Russell Crowe, Paul Bettany, Billy Boyd \n\nGeneral\nComplete name         : C:Master and CommanderMASTER_AND_COMMANDER_D1_Title1.mp4\nFormat                                   : MPEG-4\nFormat profile                           : Base Media\nCodec ID                                 : isom\nFile size                                : 1.29 GiB\nDuration                                 : 2h 18mn\nOverall bit rate                         : 1 333 Kbps\nMovie name                               : MASTER_AND_COMMANDER_D1\nGenre                                    : Adventure\nWriting application                      : Lavf54.6.100\n\nVideo\nID                                       : 1\nFormat                                   : AVC\nFormat/Info                              : Advanced Video Codec\nFormat profile                           : Baseline@L3\nFormat settings, CABAC                   : No\nFormat settings, ReFrames                : 6 frames\nCodec ID                                 : avc1\nCodec ID/Info                            : Advanced Video Coding\nDuration                                 : 2h 18mn\nBit rate                                 : 1 198 Kbps\nWidth                                    : 720 pixels\nHeight                                   : 404 pixels\nDisplay aspect ratio                     : 16:9\nFrame rate mode                          : Constant\nFrame rate                               : 29.970 fps\nColor space                              : YUV\nChroma subsampling                       : 4:2:0\nBit depth                                : 8 bits\nScan type                                : Progressive\nBits/(Pixel*Frame)                       : 0.137\nStream size                              : 1.16 GiB (90%)\n\nAudio\nID                                       : 2\nFormat                                   : AAC\nFormat/Info                              : Advanced Audio Codec\nFormat profile                           : LC\nCodec ID                                 : 40\nDuration                                 : 2h 18mn\nBit rate mode                            : Constant\nBit rate                                 : 128 Kbps\nChannel(s)                               : 2 channels\nChannel positions                        : Front: L R\nSampling rate                            : 44.1 KHz\nCompression mode                         : Lossy\nStream size                              : 127 MiB (10%)","torrent":{"xt":"urn:btih:7d23b675c6375bac7d276ea36d019907ae025d87","amp;dn":"Master+and+Commander%3A+The+Far+Side+of+the+World+%282003%29","amp;tr":["udp%3A%2F%2Ftracker.openbittorrent.com%3A80","udp%3A%2F%2Fopen.demonii.com%3A1337","udp%3A%2F%2Ftracker.coppersurfer.tk%3A6969","udp%3A%2F%2Fexodus.desync.com%3A6969"],"infoHash":"7d23b675c6375bac7d276ea36d019907ae025d87","infoHashBuffer":{"type":"Buffer","data":[125,35,182,117,198,55,91,172,125,39,110,163,109,1,153,7,174,2,93,135]},"announce":[],"urlList":[]}}